# xmcd
#
# Track frame offsets: 
#        150
#        13081
#        23270
#        35336
#        46688
#        55757
#
# Disc length: 872 seconds
#
# Revision: 1
# Processed by: cddbd v1.5.2PL0 Copyright (c) Steve Scherf et al.
# Submitted via: ExactAudioCopyFreeDBPlugin 1.0
#
DISCID=36036606
DTITLE=Junior Kimbrough - First Recordings
DYEAR=2009
DGENRE=Blues
TTITLE0=Lonesome in My Home
TTITLE1=Feels So Good #1
TTITLE2=Done Got Old
TTITLE3=Meet Me in the City
TTITLE4=Feels So Good #2
TTITLE5=Feels So Bad
EXTD=
EXTT0=
EXTT1=
EXTT2=
EXTT3=
EXTT4=
EXTT5=
PLAYORDER=
